#N canvas 72 22 1294 825 10;
#X msg 17 235 disconnect;
#X msg 101 37 send distortion \$1;
#X msg 294 114 send headroom \$1;
#X msg 329 175 send tone \$1;
#X msg 342 248 send razzmatazz \$1;
#X obj 321 518 netsend;
#X msg 181 287 send feedback \$1;
#X msg 348 192 send delay_time \$1;
#X msg 393 232 send blend \$1;
#X msg 136 201 send signal_degrade \$1;
#X msg 319 388 send fuzz_blend \$1;
#X obj 182 0 tgl 15 0 empty empty empty 17 7 0 10 -262144 -1 -1 0 1
;
#X msg 40 162 send clean \$1;
#X msg 46 427 connect localhost 10000;
#X obj 895 -226 receive fromGUI;
#X obj 897 -185 list trim;
#X msg 16 261 connect 192.168.0.157 10000;
#X obj 96 -93 changerange -1 1;
#X obj 311 -5 changerange 0 0.6;
#X obj 324 26 changerange 100 10000;
#X obj 345 71 changerange 1 20;
#X msg 824 281 send distortionBypass \$1;
#X msg 206 150 send fuzzBypass \$1;
#X msg 28 28 send delayBypass \$1;
#X msg 892 174 send reverbBypass \$1;
#X obj 474 2 changerange 1 0;
#X obj 199 48 changerange 0 0.9;
#X obj 389 13 changerange 1 1000;
#X obj 514 56 changerange 1 0;
#X obj 287 67 changerange 1 40;
#X msg 153 161 send roomsize \$1;
#X msg 158 283 send damp \$1;
#X msg 180 136 send dry \$1;
#X msg 575 234 send wet \$1;
#X obj 184 84 changerange 0 2;
#X msg 395 167 send ringmodBlend \$1;
#X msg 449 137 send ringmodPitch \$1;
#X msg 606 170 send ringmodMode \$1;
#X obj 333 -149 route /bypass /connect /disconnect /distortion /headroom
/tone /the_ol_razzmatazz /distortionBypass /delayBypass /fuzzBypass
/reverbBypass /fuzz_blend /feedback /delay_time /blend /signal_degrade
/roomsize /damp /dry /wet /ringmodBlend /ringmodPitch /ringmodMode
/ringmodBypass;
#X msg 744 9 send ringmodBypass \$1;
#X connect 0 0 5 0;
#X connect 1 0 5 0;
#X connect 2 0 5 0;
#X connect 3 0 5 0;
#X connect 4 0 5 0;
#X connect 6 0 5 0;
#X connect 7 0 5 0;
#X connect 8 0 5 0;
#X connect 9 0 5 0;
#X connect 10 0 5 0;
#X connect 12 0 5 0;
#X connect 13 0 5 0;
#X connect 14 0 15 0;
#X connect 15 0 38 0;
#X connect 16 0 5 0;
#X connect 17 0 1 0;
#X connect 18 0 2 0;
#X connect 19 0 3 0;
#X connect 20 0 4 0;
#X connect 21 0 5 0;
#X connect 22 0 5 0;
#X connect 23 0 5 0;
#X connect 24 0 5 0;
#X connect 25 0 10 0;
#X connect 26 0 6 0;
#X connect 27 0 7 0;
#X connect 28 0 8 0;
#X connect 29 0 9 0;
#X connect 30 0 5 0;
#X connect 31 0 5 0;
#X connect 32 0 5 0;
#X connect 33 0 5 0;
#X connect 34 0 31 0;
#X connect 35 0 5 0;
#X connect 36 0 5 0;
#X connect 37 0 5 0;
#X connect 38 0 12 0;
#X connect 38 1 16 0;
#X connect 38 2 0 0;
#X connect 38 3 17 0;
#X connect 38 4 18 0;
#X connect 38 5 19 0;
#X connect 38 6 20 0;
#X connect 38 7 21 0;
#X connect 38 8 23 0;
#X connect 38 9 22 0;
#X connect 38 10 24 0;
#X connect 38 11 25 0;
#X connect 38 12 26 0;
#X connect 38 13 27 0;
#X connect 38 14 28 0;
#X connect 38 15 29 0;
#X connect 38 16 30 0;
#X connect 38 17 34 0;
#X connect 38 18 32 0;
#X connect 38 19 33 0;
#X connect 38 20 35 0;
#X connect 38 21 36 0;
#X connect 38 22 37 0;
#X connect 38 23 39 0;
#X connect 39 0 5 0;
