#N canvas 117 22 1144 855 10;
#X msg 17 235 disconnect;
#X obj 811 20 hsl 128 15 -1 1 0 0 empty empty distortion -2 -8 0 10
-262144 -1 -1 0 1;
#X obj 713 82 hsl 300 15 100 10000 0 0 empty empty tone -2 -8 0 10
-262144 -1 -1 0 1;
#X obj 811 47 hsl 128 15 0.6 0 0 0 empty empty headroom -2 -8 0 10
-262144 -1 -1 0 1;
#X obj 835 116 hsl 128 15 1 20 0 0 empty empty the_ol_razzmatazz -2
-8 0 10 -262144 -1 -1 0 1;
#X msg 101 37 send distortion \$1;
#X msg 294 114 send headroom \$1;
#X msg 329 175 send tone \$1;
#X msg 342 248 send razzmatazz \$1;
#X obj 419 586 netsend;
#X obj 913 224 hsl 128 15 1 1000 0 0 empty empty delay_time -2 -8 0
10 -262144 -1 -1 0 1;
#X obj 915 184 hsl 128 15 0 0.9 0 0 empty empty feedback -2 -8 0 10
-262144 -1 -1 0 1;
#X obj 919 261 hsl 128 15 1 0 0 0 empty empty blend -2 -8 0 10 -262144
-1 -1 0 1;
#X msg 715 210 send feedback \$1;
#X msg 724 265 send delay_time \$1;
#X msg 727 301 send blend \$1;
#X obj 912 300 hsl 128 15 1 40 0 0 empty empty signal_degrade -2 -8
0 10 -262144 -1 -1 0 1;
#X msg 700 355 send signal_degrade \$1;
#X obj 915 405 hsl 128 15 1 0 0 0 empty empty fuzz_blend -2 -8 0 10
-262144 -1 -1 0 1;
#X msg 722 415 send fuzz_blend \$1;
#X msg 401 791 send clean \$1;
#X obj 112 641 tgl 15 0 empty empty empty 17 7 0 10 -262144 -1 -1 1
1;
#X msg 46 427 connect localhost 10000;
#X msg 16 261 connect 192.168.0.100 10000;
#X obj 917 446 hsl 128 15 0 1 0 1 empty empty 'roomsize' 20 8 0 10
-262144 -260097 -1 8600 0;
#X obj 932 489 hsl 128 15 0 2 0 1 empty empty damp 20 8 0 10 -262144
-260097 -1 8800 0;
#X obj 962 583 hsl 128 15 0 1 0 1 empty empty wet 20 8 0 10 -262144
-260097 -1 5700 0;
#X obj 939 529 hsl 128 15 0 1 0 1 empty empty dry 20 8 0 10 -262144
-260097 -1 12700 0;
#X msg 741 531 send roomsize \$1;
#X msg 746 561 send damp \$1;
#X msg 753 609 send dry \$1;
#X msg 959 603 send wet \$1;
#X msg 545 796 send distortionBypass \$1;
#X msg 715 795 send fuzzBypass \$1;
#X obj 113 678 tgl 15 0 empty empty empty 17 7 0 10 -262144 -1 -1 0
1;
#X obj 113 718 tgl 15 0 empty empty empty 17 7 0 10 -262144 -1 -1 0
1;
#X obj 113 759 tgl 15 0 empty empty empty 17 7 0 10 -262144 -1 -1 0
1;
#X msg 853 773 send delayBypass;
#X text 32 642 CLEAN DISTORTION OCTFUZZ DELAY REVERB;
#X msg 357 830 send reberbBypass \$1;
#X obj 111 816 tgl 15 0 empty empty empty 17 7 0 10 -262144 -1 -1 0
1;
#X connect 0 0 9 0;
#X connect 1 0 5 0;
#X connect 2 0 7 0;
#X connect 3 0 6 0;
#X connect 4 0 8 0;
#X connect 5 0 9 0;
#X connect 6 0 9 0;
#X connect 7 0 9 0;
#X connect 8 0 9 0;
#X connect 10 0 14 0;
#X connect 11 0 13 0;
#X connect 12 0 15 0;
#X connect 13 0 9 0;
#X connect 14 0 9 0;
#X connect 15 0 9 0;
#X connect 16 0 17 0;
#X connect 17 0 9 0;
#X connect 18 0 19 0;
#X connect 19 0 9 0;
#X connect 20 0 9 0;
#X connect 21 0 20 0;
#X connect 22 0 9 0;
#X connect 23 0 9 0;
#X connect 24 0 28 0;
#X connect 25 0 29 0;
#X connect 26 0 31 0;
#X connect 27 0 30 0;
#X connect 28 0 9 0;
#X connect 29 0 9 0;
#X connect 30 0 9 0;
#X connect 31 0 9 0;
#X connect 32 0 9 0;
#X connect 33 0 9 0;
#X connect 34 0 32 0;
#X connect 35 0 33 0;
#X connect 36 0 37 0;
#X connect 37 0 9 0;
#X connect 39 0 9 0;
#X connect 40 0 39 0;
