#N canvas 82 40 1294 825 10;
#X msg 17 235 disconnect;
#X msg 101 37 send distortion \$1;
#X msg 294 114 send headroom \$1;
#X msg 329 175 send tone \$1;
#X msg 342 248 send razzmatazz \$1;
#X obj 321 518 netsend;
#X obj 919 261 hsl 128 15 1 0 0 0 empty empty blend -2 -8 0 10 -262144
-1 -1 0 1;
#X msg 181 287 send feedback \$1;
#X msg 348 192 send delay_time \$1;
#X msg 727 301 send blend \$1;
#X obj 912 300 hsl 128 15 1 40 0 0 empty empty signal_degrade -2 -8
0 10 -262144 -1 -1 0 1;
#X msg 700 355 send signal_degrade \$1;
#X msg 319 388 send fuzz_blend \$1;
#X obj 182 0 tgl 15 0 empty empty empty 17 7 0 10 -262144 -1 -1 0 1
;
#X msg 736 465 send clean \$1;
#X obj 881 431 tgl 15 0 empty empty empty 17 7 0 10 -262144 -1 -1 0
1;
#X msg 46 427 connect localhost 10000;
#X obj 895 -226 receive fromGUI;
#X obj 897 -185 list trim;
#X msg 16 261 connect 192.168.0.100 10000;
#X obj 96 -93 changerange -1 1;
#X obj 311 -5 changerange 0 0.6;
#X obj 324 26 changerange 100 10000;
#X obj 345 71 changerange 1 20;
#X msg 241 221 send distortionBypass \$1;
#X msg 206 150 send fuzzBypass \$1;
#X msg 28 28 send delayBypass \$1;
#X msg 452 279 send reverbBypass \$1;
#X obj 474 2 changerange 1 0;
#X obj 199 48 changerange 0 0.9;
#X obj 333 -149 route /bypass /connect /disconnect /distortion /headroom
/tone /the_ol_razzmatazz /distortionBypass /delayBypass /fuzzBypass
/reverbBypass /fuzz_blend /feedback /delay_time;
#X obj 389 13 changerange 1 1000;
#X connect 0 0 5 0;
#X connect 1 0 5 0;
#X connect 2 0 5 0;
#X connect 3 0 5 0;
#X connect 4 0 5 0;
#X connect 6 0 9 0;
#X connect 7 0 5 0;
#X connect 8 0 5 0;
#X connect 9 0 5 0;
#X connect 10 0 11 0;
#X connect 11 0 5 0;
#X connect 12 0 5 0;
#X connect 14 0 5 0;
#X connect 15 0 14 0;
#X connect 16 0 5 0;
#X connect 17 0 18 0;
#X connect 18 0 30 0;
#X connect 19 0 5 0;
#X connect 20 0 1 0;
#X connect 21 0 2 0;
#X connect 22 0 3 0;
#X connect 23 0 4 0;
#X connect 24 0 5 0;
#X connect 25 0 5 0;
#X connect 26 0 5 0;
#X connect 27 0 5 0;
#X connect 28 0 12 0;
#X connect 29 0 7 0;
#X connect 30 0 14 0;
#X connect 30 1 19 0;
#X connect 30 2 0 0;
#X connect 30 3 20 0;
#X connect 30 4 21 0;
#X connect 30 5 22 0;
#X connect 30 6 23 0;
#X connect 30 7 24 0;
#X connect 30 8 26 0;
#X connect 30 9 25 0;
#X connect 30 10 27 0;
#X connect 30 11 28 0;
#X connect 30 12 29 0;
#X connect 30 13 31 0;
#X connect 31 0 8 0;
